<?xml version="1.0" encoding="UTF-8" standalone="no"?>
<!-- Created with Inkscape (http://www.inkscape.org/) -->

<svg
   version="1.1"
   id="svg18"
   width="775.47748"
   height="352.15182"
   viewBox="0 0 775.47748 352.15182"
   sodipodi:docname="full.svg"
   xml:space="preserve"
   inkscape:version="1.2.1 (ef4d3fba62, 2022-07-19, custom)"
   xmlns:inkscape="http://www.inkscape.org/namespaces/inkscape"
   xmlns:sodipodi="http://sodipodi.sourceforge.net/DTD/sodipodi-0.dtd"
   xmlns="http://www.w3.org/2000/svg"
   xmlns:svg="http://www.w3.org/2000/svg"><defs
     id="defs22" /><sodipodi:namedview
     id="namedview20"
     pagecolor="#ffffff"
     bordercolor="#000000"
     borderopacity="0.25"
     inkscape:showpageshadow="2"
     inkscape:pageopacity="0.0"
     inkscape:pagecheckerboard="0"
     inkscape:deskcolor="#d1d1d1"
     showgrid="false"
     inkscape:zoom="0.9045995"
     inkscape:cx="318.37294"
     inkscape:cy="88.989658"
     inkscape:window-width="1846"
     inkscape:window-height="1016"
     inkscape:window-x="0"
     inkscape:window-y="0"
     inkscape:window-maximized="1"
     inkscape:current-layer="layer1" /><g
     inkscape:groupmode="layer"
     id="layer1"
     inkscape:label="Image 1"
     style="display:inline"
     transform="translate(-126.84862,-63.15463)"><text
       xml:space="preserve"
       style="font-weight:bold;font-size:120px;font-family:MicroSquare;-inkscape-font-specification:'MicroSquare Bold';letter-spacing:8.94px;display:inline;fill:#282f39;stroke:#282a39;stroke-width:1.229;stroke-linecap:square;stroke-dasharray:none;stroke-opacity:1"
       x="418.4725"
       y="190.78331"
       id="text412"><tspan
         sodipodi:role="line"
         id="tspan410"
         x="418.4725"
         y="190.78331"
         dy="53.16"
         style="font-size:120px;fill:#282a39;fill-opacity:1;stroke:#282a39;stroke-width:1.229;stroke-dasharray:none;stroke-opacity:1">RIBEIRO</tspan><tspan
         sodipodi:role="line"
         x="418.4725"
         y="340.78333"
         id="tspan414"
         style="font-size:120px;fill:#282a39;fill-opacity:1;stroke:#282a39;stroke-width:1.229;stroke-dasharray:none;stroke-opacity:1">GROUP</tspan></text><text
       xml:space="preserve"
       style="font-weight:bold;font-size:26.6667px;font-family:MicroSquare;-inkscape-font-specification:'MicroSquare Bold';letter-spacing:3.48px;display:inline;fill:#22abe0;fill-opacity:1;stroke:#22abe0;stroke-width:0.333766;stroke-linecap:square;stroke-dasharray:none;stroke-opacity:1"
       x="420.99731"
       y="379.39343"
       id="text3743"><tspan
         sodipodi:role="line"
         id="tspan3741"
         x="420.99731"
         y="379.39343"
         style="font-style:normal;font-variant:normal;font-weight:normal;font-stretch:normal;font-size:26.6667px;font-family:sans-serif;-inkscape-font-specification:sans-serif;fill:#22abe0;fill-opacity:1;stroke:#22abe0;stroke-width:0.333766;stroke-opacity:1">SOLVING MATTER MYSTERIES</tspan></text><g
       id="layer1-5"
       inkscape:label="molecule"
       style="display:inline;fill:#000000"
       transform="translate(69.880569,43.764142)"><path
         style="display:inline;fill:#282f39;fill-opacity:1;stroke:#282f39;stroke-width:3.862;stroke-dasharray:none;stroke-opacity:1;paint-order:fill markers stroke"
         d="m 97.996917,302.8436 -39.09848,39.32241 c 0,0 -0.316218,10.42453 12.757813,20.94678 9.801459,7.88843 17.119628,6.40088 17.119628,6.40088 l 36.362962,-39.11228 c -10.6841,-7.58973 -18.70855,-15.58343 -27.141923,-27.55779 z"
         id="path18232"
         sodipodi:nodetypes="ccsccc" /><path
         style="display:inline;fill:#ffffff;fill-opacity:1;stroke:#ffffff;stroke-width:4.662;stroke-linecap:round;stroke-dasharray:none;stroke-opacity:1;paint-order:fill markers stroke"
         d="M 117.47829,330.54182 85.211184,364.40599"
         id="path18570"
         sodipodi:nodetypes="cc" /><circle
         style="display:inline;fill:#282f39;fill-opacity:1;stroke:#282f39;stroke-width:1.62133;stroke-dasharray:none;stroke-opacity:1"
         id="path16260"
         cx="288.79126"
         cy="223.60913"
         r="23.531492" /><path
         id="path14428"
         style="display:inline;fill:#282f39;fill-opacity:1;stroke:#282f39;stroke-width:1.1659;stroke-dasharray:none;stroke-opacity:1"
         d="M 197.32227,121.23438 A 106.20846,105.73785 0 0 0 91.113281,226.97266 106.20846,105.73785 0 0 0 197.32227,332.71094 106.20846,105.73785 0 0 0 303.50586,227.99414 h -29.09961 a 77.707649,77.707649 0 0 1 0.002,0.0703 77.707649,77.707649 0 0 1 -77.70703,77.70703 77.707649,77.707649 0 0 1 -77.70703,-77.70703 77.707649,77.707649 0 0 1 64.91016,-76.58789 60.676701,60.676701 0 0 1 23.72265,-29.74023 106.20846,105.73785 0 0 0 -10.30468,-0.50195 z" /><circle
         style="display:inline;fill:#22abe0;fill-opacity:1;stroke:#22abe0;stroke-width:0.806342;stroke-opacity:1"
         id="path308-3-6"
         cx="278.52969"
         cy="45.957413"
         r="26.163754" /><circle
         style="display:inline;fill:#22abe0;fill-opacity:1;stroke:#22abe0;stroke-width:1.093;stroke-dasharray:none;stroke-opacity:1"
         id="path308-3"
         cx="119.29068"
         cy="214.40288"
         r="35.475159" /><path
         style="display:inline;fill:#de2642;fill-opacity:0.387173;stroke:#22abe0;stroke-width:10.015;stroke-dasharray:none;stroke-opacity:1"
         d="M 278.43487,45.853181 263.27544,97.411254 241.03872,173.03957"
         id="path2851"
         sodipodi:nodetypes="ccc" /><path
         style="display:inline;fill:#27aae0;fill-opacity:1;stroke:#22abe0;stroke-width:13.515;stroke-dasharray:none;stroke-opacity:1"
         d="m 118.17286,216.60195 120.04685,-39.8514 2.86542,-3.66827"
         id="path4507"
         sodipodi:nodetypes="ccc" /><path
         id="path308"
         style="display:inline;fill:#22abe0;fill-opacity:1;stroke:#22abe0;stroke-width:1.53703;stroke-dasharray:none;stroke-opacity:1"
         d="m 241.05664,123.19727 a 49.874413,49.874413 0 0 0 -49.875,49.87304 49.874413,49.874413 0 0 0 49.875,49.875 49.874413,49.874413 0 0 0 14.36524,-2.20508 33.355259,33.355259 0 0 1 32.60351,-31.06054 49.874413,49.874413 0 0 0 2.9043,-16.60938 49.874413,49.874413 0 0 0 -49.87305,-49.87304 z" /></g></g></svg>
